<mxfile host="app.diagrams.net" modified="2023-10-16T00:31:28.231Z" agent="Mozilla/5.0 (X11; Haiku x86_64) AppleWebKit/605.1.15 (KHTML, like Gecko) Version/16.4 Safari/605.1.15" etag="bdZdpgvsJj5qKybIav21" version="22.0.4" type="device">
  <diagram name="Page-1" id="YLuxLzCChO9lDrBCBnmW">
    <mxGraphModel dx="736" dy="450" grid="1" gridSize="10" guides="1" tooltips="1" connect="1" arrows="1" fold="1" page="1" pageScale="1" pageWidth="827" pageHeight="1169" math="0" shadow="0">
      <root>
        <mxCell id="0" />
        <mxCell id="1" parent="0" />
        <mxCell id="ge1HdiD3Fcwc_kXfmMGz-7" value="" style="edgeStyle=orthogonalEdgeStyle;rounded=0;orthogonalLoop=1;jettySize=auto;html=1;" edge="1" parent="1" source="ge1HdiD3Fcwc_kXfmMGz-1" target="ge1HdiD3Fcwc_kXfmMGz-8">
          <mxGeometry relative="1" as="geometry">
            <mxPoint x="355" y="140" as="targetPoint" />
          </mxGeometry>
        </mxCell>
        <mxCell id="ge1HdiD3Fcwc_kXfmMGz-1" value="" style="ellipse;fillColor=strokeColor;html=1;" vertex="1" parent="1">
          <mxGeometry x="340" y="55" width="30" height="30" as="geometry" />
        </mxCell>
        <mxCell id="ge1HdiD3Fcwc_kXfmMGz-5" value="Enter a&lt;br&gt;character" style="edgeStyle=orthogonalEdgeStyle;rounded=0;orthogonalLoop=1;jettySize=auto;html=1;" edge="1" parent="1" source="ge1HdiD3Fcwc_kXfmMGz-3" target="ge1HdiD3Fcwc_kXfmMGz-1">
          <mxGeometry relative="1" as="geometry" />
        </mxCell>
        <mxCell id="ge1HdiD3Fcwc_kXfmMGz-3" value="User" style="shape=umlActor;verticalLabelPosition=bottom;verticalAlign=top;html=1;outlineConnect=0;" vertex="1" parent="1">
          <mxGeometry x="170" y="40" width="30" height="60" as="geometry" />
        </mxCell>
        <mxCell id="ge1HdiD3Fcwc_kXfmMGz-10" value="c, g, h,&lt;br&gt;j, s, u" style="edgeStyle=orthogonalEdgeStyle;rounded=0;orthogonalLoop=1;jettySize=auto;html=1;" edge="1" parent="1" source="ge1HdiD3Fcwc_kXfmMGz-8" target="ge1HdiD3Fcwc_kXfmMGz-9">
          <mxGeometry relative="1" as="geometry" />
        </mxCell>
        <mxCell id="ge1HdiD3Fcwc_kXfmMGz-12" value="Any&lt;br&gt;other" style="edgeStyle=orthogonalEdgeStyle;rounded=0;orthogonalLoop=1;jettySize=auto;html=1;" edge="1" parent="1" source="ge1HdiD3Fcwc_kXfmMGz-8" target="ge1HdiD3Fcwc_kXfmMGz-11">
          <mxGeometry relative="1" as="geometry" />
        </mxCell>
        <mxCell id="ge1HdiD3Fcwc_kXfmMGz-8" value="What is&lt;br&gt;the char?" style="rhombus;whiteSpace=wrap;html=1;" vertex="1" parent="1">
          <mxGeometry x="300" y="140" width="110" height="60" as="geometry" />
        </mxCell>
        <mxCell id="ge1HdiD3Fcwc_kXfmMGz-15" style="edgeStyle=orthogonalEdgeStyle;rounded=0;orthogonalLoop=1;jettySize=auto;html=1;" edge="1" parent="1" source="ge1HdiD3Fcwc_kXfmMGz-9" target="ge1HdiD3Fcwc_kXfmMGz-14">
          <mxGeometry relative="1" as="geometry" />
        </mxCell>
        <mxCell id="ge1HdiD3Fcwc_kXfmMGz-9" value="Expect &#39;^&#39;" style="whiteSpace=wrap;html=1;" vertex="1" parent="1">
          <mxGeometry x="310" y="280" width="90" height="20" as="geometry" />
        </mxCell>
        <mxCell id="ge1HdiD3Fcwc_kXfmMGz-13" style="edgeStyle=orthogonalEdgeStyle;rounded=0;orthogonalLoop=1;jettySize=auto;html=1;" edge="1" parent="1" source="ge1HdiD3Fcwc_kXfmMGz-11" target="ge1HdiD3Fcwc_kXfmMGz-1">
          <mxGeometry relative="1" as="geometry">
            <Array as="points">
              <mxPoint x="540" y="70" />
            </Array>
          </mxGeometry>
        </mxCell>
        <mxCell id="ge1HdiD3Fcwc_kXfmMGz-11" value="Do nothing" style="whiteSpace=wrap;html=1;" vertex="1" parent="1">
          <mxGeometry x="500" y="160" width="90" height="20" as="geometry" />
        </mxCell>
        <mxCell id="ge1HdiD3Fcwc_kXfmMGz-14" value="What is&lt;br&gt;the char?" style="rhombus;whiteSpace=wrap;html=1;" vertex="1" parent="1">
          <mxGeometry x="300" y="350" width="110" height="60" as="geometry" />
        </mxCell>
        <mxCell id="ge1HdiD3Fcwc_kXfmMGz-17" value="&lt;font style=&quot;font-size: 10px;&quot;&gt;Enter a character&lt;/font&gt;" style="html=1;shape=mxgraph.infographic.ribbonSimple;notch1=0;notch2=20;align=left;verticalAlign=middle;fontSize=14;fontStyle=0;fillColor=#FFFFFF;whiteSpace=wrap;" vertex="1" parent="1">
          <mxGeometry x="120" y="290" width="120" height="20" as="geometry" />
        </mxCell>
      </root>
    </mxGraphModel>
  </diagram>
</mxfile>
